# Blender v2.77 (sub 0) OBJ File: ''
# www.blender.org
mtllib untitled.mtl
o Cube
v 0.000000 0.000000 -1.000000
v -0.195090 0.000000 -0.980785
v -0.382683 0.000000 -0.923880
v -0.555570 0.000000 -0.831470
v -0.707107 0.000000 -0.707107
v -0.831470 0.000000 -0.555570
v -0.923880 0.000000 -0.382683
v -0.980785 0.000000 -0.195090
v -1.000000 0.000000 -0.000000
v -0.980785 0.000000 0.195090
v -0.923880 0.000000 0.382683
v -0.831470 0.000000 0.555570
v -0.707107 0.000000 0.707107
v -0.555570 0.000000 0.831470
v -0.382683 0.000000 0.923880
v -0.195090 0.000000 0.980785
v 0.000000 0.000000 1.000000
v 0.195091 0.000000 0.980785
v 0.382684 0.000000 0.923879
v 0.555571 0.000000 0.831469
v 0.707107 0.000000 0.707106
v 0.831470 0.000000 0.555570
v 0.923880 0.000000 0.382683
v 0.980785 0.000000 0.195089
v 1.000000 0.000000 -0.000001
v 0.980785 0.000000 -0.195091
v 0.923879 0.000000 -0.382684
v 0.831469 0.000000 -0.555571
v 0.707106 0.000000 -0.707108
v 0.555569 0.000000 -0.831470
v 0.382682 0.000000 -0.923880
v 0.195089 0.000000 -0.980786
v 0.000000 6.000000 -1.000000
v -0.195090 6.000000 -0.980785
v -0.382683 6.000000 -0.923879
v -0.555570 6.000000 -0.831469
v -0.707107 6.000000 -0.707106
v -0.831470 6.000000 -0.555570
v -0.923880 6.000000 -0.382683
v -0.980785 6.000000 -0.195090
v -1.000000 6.000000 0.000000
v -0.980785 6.000000 0.195090
v -0.923880 6.000000 0.382684
v -0.831470 6.000000 0.555570
v -0.707107 6.000000 0.707107
v -0.555570 6.000000 0.831470
v -0.382683 6.000000 0.923880
v -0.195090 6.000000 0.980786
v 0.000000 6.000000 1.000000
v 0.195091 6.000000 0.980785
v 0.382684 6.000000 0.923880
v 0.555571 6.000000 0.831470
v 0.707107 6.000000 0.707107
v 0.831470 6.000000 0.555570
v 0.923880 6.000000 0.382683
v 0.980785 6.000000 0.195090
v 1.000000 6.000000 -0.000001
v 0.980785 6.000000 -0.195091
v 0.923879 6.000000 -0.382684
v 0.831469 6.000000 -0.555571
v 0.707106 6.000000 -0.707107
v 0.555569 6.000000 -0.831470
v 0.382682 6.000000 -0.923880
v 0.195089 6.000000 -0.980785
vn 0.600000 0.693300 0.399100
vn 0.666400 0.693300 0.274400
vn 0.510600 0.693300 0.508500
vn 0.707100 0.693300 0.139100
vn 0.720600 0.693300 -0.001500
vn 0.713900 0.685700 -0.142000
vn 0.672500 0.685700 -0.278500
vn 0.605200 0.685700 -0.404400
vn 0.514700 0.685700 -0.514700
vn 0.404400 0.685700 -0.605200
vn 0.278500 0.685700 -0.672500
vn 0.142000 0.685700 -0.713900
vn 0.000000 0.685700 -0.727900
vn -0.142000 0.685700 -0.713900
vn -0.136600 0.882400 -0.450300
vn 0.000000 1.000000 0.000000
vn -0.136600 0.882400 0.450300
vn -0.139100 0.693300 0.707100
vn 0.001500 0.693300 0.720600
vn 0.142100 0.693300 0.706500
vn 0.277200 0.693300 0.665200
vn 0.401600 0.693300 0.598300
vn 0.713900 -0.685700 -0.142000
vn 0.000000 -0.993800 -0.111300
vn 0.672500 -0.685700 -0.278500
vn 0.605200 -0.685700 -0.404400
vn 0.514700 -0.685700 -0.514700
vn 0.404400 -0.685700 -0.605200
vn 0.278500 -0.685700 -0.672500
vn 0.142000 -0.685700 -0.713900
vn 0.000000 -0.685700 -0.727900
vn -0.142000 -0.685700 -0.713900
vn -0.136600 -0.882400 -0.450300
vn 0.000000 -1.000000 0.000000
vn 0.139400 0.877100 -0.459600
vn 0.142100 0.693300 -0.706500
vn 0.001500 0.693300 -0.720600
vn -0.139100 0.693300 -0.707100
vn -0.274400 0.693300 -0.666400
vn -0.399100 0.693300 -0.600000
vn -0.508500 0.693300 -0.510600
vn -0.598300 0.693300 -0.401600
vn -0.921200 0.064000 -0.383800
vn -0.706500 0.693300 -0.142100
usemtl Material
s 1
f 6//1 7//2 5//3
f 8//4 9//5 7//2
f 10//6 11//7 9//5
f 12//8 13//9 11//7
f 14//10 15//11 13//9
f 16//12 17//13 15//11
f 18//14 19//15 17//13
f 20//16 21//16 19//15
f 22//16 23//16 21//16
f 24//16 25//16 23//16
f 26//16 27//16 25//16
f 28//16 29//16 27//16
f 30//16 31//17 29//16
f 32//18 1//19 31//17
f 2//20 3//21 1//19
f 4//22 5//3 3//21
f 7//2 9//5 5//3
f 11//7 13//9 9//5
f 15//11 17//13 13//9
f 19//15 21//16 17//13
f 23//16 25//16 21//16
f 27//16 29//16 25//16
f 31//17 1//19 29//16
f 3//21 5//3 1//19
f 9//5 13//9 5//3
f 1//19 5//3 29//16
f 25//16 29//16 21//16
f 17//13 21//16 13//9
f 21//16 29//16 13//9
f 5//3 13//9 29//16
f 42//23 41//24 43//25
f 44//26 43//25 45//27
f 46//28 45//27 47//29
f 48//30 47//29 49//31
f 50//32 49//31 51//33
f 52//34 51//33 53//34
f 54//34 53//34 55//34
f 56//34 55//34 57//34
f 58//34 57//34 59//16
f 60//16 61//16 59//16
f 62//34 61//16 63//35
f 64//36 33//37 63//35
f 34//38 35//39 33//37
f 36//40 37//41 35//39
f 38//42 39//43 37//41
f 40//44 41//24 39//43
f 37//41 39//43 35//39
f 33//37 35//39 63//35
f 61//16 63//35 59//16
f 57//34 55//34 59//16
f 53//34 51//33 55//34
f 49//31 47//29 51//33
f 45//27 43//25 47//29
f 41//24 39//43 43//25
f 35//39 39//43 63//35
f 59//16 63//35 55//34
f 51//33 47//29 55//34
f 47//29 43//25 39//43
f 63//35 39//43 55//34
f 55//34 47//29 39//43
f 10//6 9//5 41//24
f 41//24 42//23 10//6
f 10//6 42//23 11//7
f 42//23 43//25 11//7
f 11//7 43//25 12//8
f 43//25 44//26 12//8
f 12//8 44//26 13//9
f 44//26 45//27 13//9
f 13//9 45//27 14//10
f 45//27 46//28 14//10
f 41//24 40//44 9//5
f 9//5 8//4 40//44
f 40//44 39//43 8//4
f 8//4 7//2 39//43
f 39//43 38//42 7//2
f 7//2 6//1 38//42
f 38//42 37//41 6//1
f 6//1 5//3 37//41
f 37//41 36//40 5//3
f 5//3 4//22 36//40
f 36//40 35//39 4//22
f 4//22 3//21 35//39
f 35//39 34//38 3//21
f 3//21 2//20 34//38
f 34//38 33//37 2//20
f 2//20 1//19 33//37
f 14//10 46//28 15//11
f 46//28 47//29 15//11
f 15//11 47//29 16//12
f 47//29 48//30 16//12
f 16//12 48//30 17//13
f 48//30 49//31 17//13
f 17//13 49//31 18//14
f 49//31 50//32 18//14
f 33//37 64//36 1//19
f 1//19 32//18 64//36
f 64//36 63//35 32//18
f 32//18 31//17 63//35
f 18//14 50//32 19//15
f 50//32 51//33 19//15
